<?xml version="1.0" encoding="utf-8"?>
<!-- Generator: Adobe Illustrator 24.0.1, SVG Export Plug-In . SVG Version: 6.00 Build 0)  -->
<svg version="1.1" id="Layer_1" xmlns="http://www.w3.org/2000/svg" xmlns:xlink="http://www.w3.org/1999/xlink" x="0px" y="0px"
	 viewBox="0 0 92.81 92.81" style="enable-background:new 0 0 92.81 92.81;" xml:space="preserve">
<style type="text/css">
	.st0{fill:#14FFEC;}
	.st1{fill:#7DD3FC;}
</style>
<g>
	<g>
		<path class="st0" d="M84.38,21.93l-7.77-4.49c-0.51,1.4-1.3,2.66-2.32,3.72l5.71,3.3c1.37,0.79,2.22,2.25,2.22,3.83v36.24
			c0,1.58-0.85,3.04-2.22,3.83L48.63,86.48c-1.38,0.79-3.06,0.79-4.44,0L12.82,68.36c-1.37-0.79-2.22-2.25-2.22-3.83V28.29
			c0-1.58,0.85-3.04,2.22-3.83L44.19,6.34c1.38-0.79,3.06-0.79,4.44,0l7.34,4.24c0.42-1.43,1.14-2.74,2.08-3.86l-9.42-5.44
			c-1.38-0.79-3.06-0.79-4.44,0L8.44,21.93c-1.38,0.79-2.22,2.25-2.22,3.83v41.3c0,1.58,0.84,3.04,2.22,3.83l35.75,20.65
			c1.38,0.79,3.06,0.79,4.44,0l35.75-20.65c1.38-0.79,2.22-2.25,2.22-3.83v-41.3C86.6,24.18,85.76,22.72,84.38,21.93z"/>
	</g>
	<circle class="st0" cx="66.39" cy="13.69" r="10.09"/>
</g>
<g>
	<path class="st1" d="M-200.84-34.12v-41.29c0-1.58,0.84-3.05,2.22-3.84l35.76-20.65c1.37-0.79,3.06-0.79,4.43,0l35.76,20.65
		c1.37,0.79,2.22,2.25,2.22,3.84v41.29c0,1.58-0.84,3.05-2.22,3.84l-35.76,20.65c-1.37,0.79-3.06,0.79-4.43,0l-35.76-20.65
		C-200-31.08-200.84-32.54-200.84-34.12z M-196.46-72.88v36.23c0,1.58,0.84,3.05,2.22,3.84l31.38,18.12c1.37,0.79,3.06,0.79,4.43,0
		l31.38-18.12c1.37-0.79,2.22-2.25,2.22-3.84v-36.23c0-1.58-0.84-3.05-2.22-3.84l-31.38-18.12c-1.37-0.79-3.06-0.79-4.43,0
		l-31.38,18.12C-195.61-75.93-196.46-74.47-196.46-72.88z"/>
</g>
<g>
	<path class="st1" d="M-152.36-44.44h-16.79l-3.2,7.75h-8.57l16.12-36.16h8.26l16.17,36.16h-8.78L-152.36-44.44z M-155-50.79
		l-5.73-13.84l-5.73,13.84H-155z"/>
</g>
<g>
	<path class="st0" d="M54.7,56.74H37.91l-3.2,7.75h-8.57l16.12-36.16h8.26l16.17,36.16H57.9L54.7,56.74z M52.06,50.38l-5.73-13.84
		L40.6,50.38H52.06z"/>
</g>
</svg>
