<?xml version="1.0" encoding="utf-8"?>
<!-- Generator: Adobe Illustrator 24.0.1, SVG Export Plug-In . SVG Version: 6.00 Build 0)  -->
<svg version="1.1" id="Layer_1" xmlns="http://www.w3.org/2000/svg" xmlns:xlink="http://www.w3.org/1999/xlink" x="0px" y="0px"
	 viewBox="0 0 64 64" style="enable-background:new 0 0 64 64;" xml:space="preserve">
<style type="text/css">
	.st0{fill:#E9454E;}
	.st1{fill:#85C1EB;}
	.st2{fill:#4F2881;}
</style>
<g>
	<circle class="st0" cx="26.77" cy="23.84" r="23.36"/>
	<path class="st0" d="M49.94,21.12v30.92c-3.14,1.94-6.77,3.16-10.67,3.42V21.12H49.94z"/>
</g>
<g>
	<path class="st1" d="M60.84,29.44v30.92c-3.14,1.94-6.77,3.16-10.67,3.42V29.44H60.84z"/>
	<path class="st1" d="M61.04,32.16c0,1.02-0.07,2.03-0.19,3.02c-0.91,7.03-4.94,13.09-10.67,16.72c-0.08,0.05-0.16,0.1-0.24,0.15
		c-3.14,1.94-6.77,3.16-10.67,3.42c-0.53,0.04-1.06,0.06-1.6,0.06c-7.83,0-14.76-3.85-19-9.76c-2.75-3.83-4.37-8.53-4.37-13.6
		c0-12.9,10.46-23.36,23.36-23.36c2.84,0,5.57,0.51,8.09,1.44C54.68,13.52,61.04,22.1,61.04,32.16z"/>
</g>
<g>
	<path class="st2" d="M50.13,23.84c0,1.03-0.07,2.04-0.19,3.03c-0.91,7.03-4.95,13.08-10.67,16.71c-3.62,2.3-7.9,3.62-12.5,3.62
		c-2.85,0-5.57-0.51-8.09-1.44c-2.75-3.83-4.37-8.53-4.37-13.6c0-12.9,10.46-23.36,23.36-23.36c2.84,0,5.57,0.51,8.09,1.44
		C48.51,14.06,50.13,18.76,50.13,23.84z"/>
	<path class="st2" d="M49.94,21.12v30.92c-3.14,1.94-6.77,3.16-10.67,3.42V21.12H49.94z"/>
</g>
</svg>
